<svg width="194" height="46" viewBox="0 0 194 46" fill="none" xmlns="http://www.w3.org/2000/svg">
<rect x="6.15916" y="22.5348" width="23.0804" height="23.0804" rx="11.5402" transform="rotate(-45 6.15916 22.5348)" stroke="url(#paint0_linear_87_48)" stroke-width="3"/>
<rect x="5.57377" y="30.3128" width="26.3405" height="26.3405" rx="13.1702" transform="rotate(-69.57 5.57377 30.3128)" stroke="url(#paint1_linear_87_48)" stroke-width="3"/>
<rect x="28.2772" y="43.11" width="29.9793" height="30.3583" rx="14.9896" transform="rotate(-151.073 28.2772 43.11)" stroke="url(#paint2_linear_87_48)" stroke-width="3"/>
<path d="M47.0227 35V11.7273H56.2045C57.9697 11.7273 59.4735 12.0644 60.7159 12.7386C61.9583 13.4053 62.9053 14.3333 63.5568 15.5227C64.2159 16.7045 64.5455 18.0682 64.5455 19.6136C64.5455 21.1591 64.2121 22.5227 63.5455 23.7045C62.8788 24.8864 61.9129 25.8068 60.6477 26.4659C59.3902 27.125 57.8674 27.4545 56.0795 27.4545H50.2273V23.5114H55.2841C56.2311 23.5114 57.0114 23.3485 57.625 23.0227C58.2462 22.6894 58.7083 22.2311 59.0114 21.6477C59.322 21.0568 59.4773 20.3788 59.4773 19.6136C59.4773 18.8409 59.322 18.1667 59.0114 17.5909C58.7083 17.0076 58.2462 16.5568 57.625 16.2386C57.0038 15.9129 56.2159 15.75 55.2614 15.75H51.9432V35H47.0227ZM67.6506 35V17.5455H72.4915V35H67.6506ZM70.0824 15.2955C69.3627 15.2955 68.7453 15.0568 68.2301 14.5795C67.7225 14.0947 67.4688 13.5152 67.4688 12.8409C67.4688 12.1742 67.7225 11.6023 68.2301 11.125C68.7453 10.6402 69.3627 10.3977 70.0824 10.3977C70.8021 10.3977 71.4157 10.6402 71.9233 11.125C72.4384 11.6023 72.696 12.1742 72.696 12.8409C72.696 13.5152 72.4384 14.0947 71.9233 14.5795C71.4157 15.0568 70.8021 15.2955 70.0824 15.2955ZM81.2102 24.9091V35H76.3693V17.5455H80.983V20.625H81.1875C81.5739 19.6098 82.2216 18.8068 83.1307 18.2159C84.0398 17.6174 85.142 17.3182 86.4375 17.3182C87.6496 17.3182 88.7064 17.5833 89.608 18.1136C90.5095 18.6439 91.2102 19.4015 91.7102 20.3864C92.2102 21.3636 92.4602 22.5303 92.4602 23.8864V35H87.6193V24.75C87.6269 23.6818 87.3542 22.8485 86.8011 22.25C86.2481 21.6439 85.4867 21.3409 84.517 21.3409C83.8655 21.3409 83.2898 21.4811 82.7898 21.7614C82.2973 22.0417 81.911 22.4508 81.6307 22.9886C81.358 23.5189 81.2178 24.1591 81.2102 24.9091ZM104.139 41.9091C102.571 41.9091 101.226 41.6932 100.105 41.2614C98.9915 40.8371 98.1051 40.2576 97.446 39.5227C96.7869 38.7879 96.3589 37.9621 96.1619 37.0455L100.639 36.4432C100.776 36.7917 100.991 37.1174 101.287 37.4205C101.582 37.7235 101.973 37.9659 102.457 38.1477C102.95 38.3371 103.548 38.4318 104.253 38.4318C105.306 38.4318 106.173 38.1742 106.855 37.6591C107.545 37.1515 107.889 36.2992 107.889 35.1023V31.9091H107.685C107.473 32.3939 107.154 32.8523 106.73 33.2841C106.306 33.7159 105.76 34.0682 105.094 34.3409C104.427 34.6136 103.632 34.75 102.707 34.75C101.397 34.75 100.204 34.447 99.1278 33.8409C98.0597 33.2273 97.2074 32.2917 96.571 31.0341C95.9422 29.7689 95.6278 28.1705 95.6278 26.2386C95.6278 24.2614 95.9498 22.6098 96.5938 21.2841C97.2377 19.9583 98.0938 18.9659 99.1619 18.3068C100.238 17.6477 101.416 17.3182 102.696 17.3182C103.673 17.3182 104.491 17.4848 105.151 17.8182C105.81 18.1439 106.34 18.553 106.741 19.0455C107.151 19.5303 107.465 20.0076 107.685 20.4773H107.866V17.5455H112.673V35.1705C112.673 36.6553 112.31 37.8977 111.582 38.8977C110.855 39.8977 109.848 40.6477 108.56 41.1477C107.279 41.6553 105.806 41.9091 104.139 41.9091ZM104.241 31.1136C105.022 31.1136 105.681 30.9205 106.219 30.5341C106.764 30.1402 107.181 29.5795 107.469 28.8523C107.764 28.1174 107.912 27.2386 107.912 26.2159C107.912 25.1932 107.768 24.3068 107.48 23.5568C107.192 22.7992 106.776 22.2121 106.23 21.7955C105.685 21.3788 105.022 21.1705 104.241 21.1705C103.446 21.1705 102.776 21.3864 102.23 21.8182C101.685 22.2424 101.272 22.8333 100.991 23.5909C100.711 24.3485 100.571 25.2235 100.571 26.2159C100.571 27.2235 100.711 28.0947 100.991 28.8295C101.279 29.5568 101.692 30.1212 102.23 30.5227C102.776 30.9167 103.446 31.1136 104.241 31.1136ZM124.023 35V11.7273H133.205C134.97 11.7273 136.473 12.0644 137.716 12.7386C138.958 13.4053 139.905 14.3333 140.557 15.5227C141.216 16.7045 141.545 18.0682 141.545 19.6136C141.545 21.1591 141.212 22.5227 140.545 23.7045C139.879 24.8864 138.913 25.8068 137.648 26.4659C136.39 27.125 134.867 27.4545 133.08 27.4545H127.227V23.5114H132.284C133.231 23.5114 134.011 23.3485 134.625 23.0227C135.246 22.6894 135.708 22.2311 136.011 21.6477C136.322 21.0568 136.477 20.3788 136.477 19.6136C136.477 18.8409 136.322 18.1667 136.011 17.5909C135.708 17.0076 135.246 16.5568 134.625 16.2386C134.004 15.9129 133.216 15.75 132.261 15.75H128.943V35H124.023ZM149.159 35.3295C148.045 35.3295 147.053 35.1364 146.182 34.75C145.311 34.3561 144.621 33.7765 144.114 33.0114C143.614 32.2386 143.364 31.2765 143.364 30.125C143.364 29.1553 143.542 28.3409 143.898 27.6818C144.254 27.0227 144.739 26.4924 145.352 26.0909C145.966 25.6894 146.663 25.3864 147.443 25.1818C148.231 24.9773 149.057 24.8333 149.92 24.75C150.936 24.6439 151.754 24.5455 152.375 24.4545C152.996 24.3561 153.447 24.2121 153.727 24.0227C154.008 23.8333 154.148 23.553 154.148 23.1818V23.1136C154.148 22.3939 153.92 21.8371 153.466 21.4432C153.019 21.0492 152.383 20.8523 151.557 20.8523C150.686 20.8523 149.992 21.0455 149.477 21.4318C148.962 21.8106 148.621 22.2879 148.455 22.8636L143.977 22.5C144.205 21.4394 144.652 20.5227 145.318 19.75C145.985 18.9697 146.845 18.3712 147.898 17.9545C148.958 17.5303 150.186 17.3182 151.58 17.3182C152.549 17.3182 153.477 17.4318 154.364 17.6591C155.258 17.8864 156.049 18.2386 156.739 18.7159C157.436 19.1932 157.985 19.8068 158.386 20.5568C158.788 21.2992 158.989 22.1894 158.989 23.2273V35H154.398V32.5795H154.261C153.981 33.125 153.606 33.6061 153.136 34.0227C152.667 34.4318 152.102 34.7538 151.443 34.9886C150.784 35.2159 150.023 35.3295 149.159 35.3295ZM150.545 31.9886C151.258 31.9886 151.886 31.8485 152.432 31.5682C152.977 31.2803 153.405 30.8939 153.716 30.4091C154.027 29.9242 154.182 29.375 154.182 28.7614V26.9091C154.03 27.0076 153.822 27.0985 153.557 27.1818C153.299 27.2576 153.008 27.3295 152.682 27.3977C152.356 27.4583 152.03 27.5152 151.705 27.5682C151.379 27.6136 151.083 27.6553 150.818 27.6932C150.25 27.7765 149.754 27.9091 149.33 28.0909C148.905 28.2727 148.576 28.5189 148.341 28.8295C148.106 29.1326 147.989 29.5114 147.989 29.9659C147.989 30.625 148.227 31.1288 148.705 31.4773C149.189 31.8182 149.803 31.9886 150.545 31.9886ZM172.028 17.5455V21.1818H161.517V17.5455H172.028ZM163.903 13.3636H168.744V29.6364C168.744 30.0833 168.813 30.4318 168.949 30.6818C169.085 30.9242 169.275 31.0947 169.517 31.1932C169.767 31.2917 170.055 31.3409 170.381 31.3409C170.608 31.3409 170.835 31.322 171.062 31.2841C171.29 31.2386 171.464 31.2045 171.585 31.1818L172.347 34.7841C172.104 34.8598 171.763 34.947 171.324 35.0455C170.884 35.1515 170.35 35.2159 169.722 35.2386C168.555 35.2841 167.532 35.1288 166.653 34.7727C165.782 34.4167 165.104 33.8636 164.619 33.1136C164.134 32.3636 163.896 31.4167 163.903 30.2727V13.3636ZM180.398 24.9091V35H175.557V11.7273H180.261V20.625H180.466C180.86 19.5947 181.496 18.7879 182.375 18.2045C183.254 17.6136 184.356 17.3182 185.682 17.3182C186.894 17.3182 187.951 17.5833 188.852 18.1136C189.761 18.6364 190.466 19.3902 190.966 20.375C191.473 21.3523 191.723 22.5227 191.716 23.8864V35H186.875V24.75C186.883 23.6742 186.61 22.8371 186.057 22.2386C185.511 21.6402 184.746 21.3409 183.761 21.3409C183.102 21.3409 182.519 21.4811 182.011 21.7614C181.511 22.0417 181.117 22.4508 180.83 22.9886C180.549 23.5189 180.405 24.1591 180.398 24.9091Z" fill="#53A8FE"/>
<defs>
<linearGradient id="paint0_linear_87_48" x1="17.0781" y1="22.5348" x2="17.0781" y2="48.6152" gradientUnits="userSpaceOnUse">
<stop stop-color="#55AEFE"/>
<stop offset="1" stop-color="#2B44FF"/>
</linearGradient>
<linearGradient id="paint1_linear_87_48" x1="18.3148" y1="31.1948" x2="18.3148" y2="60.5353" gradientUnits="userSpaceOnUse">
<stop stop-color="#55AEFE"/>
<stop offset="1" stop-color="#2B44FF"/>
</linearGradient>
<linearGradient id="paint2_linear_87_48" x1="45.3541" y1="45.1484" x2="45.3541" y2="78.5068" gradientUnits="userSpaceOnUse">
<stop stop-color="#55AEFE"/>
<stop offset="1" stop-color="#2B44FF"/>
</linearGradient>
</defs>
</svg>
