<svg width="130" height="46" viewBox="0 0 130 46" fill="none" xmlns="http://www.w3.org/2000/svg">
<rect x="6.15916" y="22.5348" width="23.0804" height="23.0804" rx="11.5402" transform="rotate(-45 6.15916 22.5348)" stroke="url(#paint0_linear_87_48)" stroke-width="3"/>
<rect x="5.57377" y="30.3128" width="26.3405" height="26.3405" rx="13.1702" transform="rotate(-69.57 5.57377 30.3128)" stroke="url(#paint1_linear_87_48)" stroke-width="3"/>
<rect x="28.2772" y="43.11" width="29.9793" height="30.3583" rx="14.9896" transform="rotate(-151.073 28.2772 43.11)" stroke="url(#paint2_linear_87_48)" stroke-width="3"/>
<path d="M47.0227 35V11.7273H56.2045C57.9697 11.7273 59.4735 12.0644 60.7159 12.7386C61.9583 13.4053 62.9053 14.3333 63.5568 15.5227C64.2159 16.7045 64.5455 18.0682 64.5455 19.6136C64.5455 21.1591 64.2121 22.5227 63.5455 23.7045C62.8788 24.8864 61.9129 25.8068 60.6477 26.4659C59.3902 27.125 57.8674 27.4545 56.0795 27.4545H50.2273V23.5114H55.2841C56.2311 23.5114 57.0114 23.3485 57.625 23.0227C58.2462 22.6894 58.7083 22.2311 59.0114 21.6477C59.322 21.0568 59.4773 20.3788 59.4773 19.6136C59.4773 18.8409 59.322 18.1667 59.0114 17.5909C58.7083 17.0076 58.2462 16.5568 57.625 16.2386C57.0038 15.9129 56.2159 15.75 55.2614 15.75H51.9432V35H47.0227ZM67.6506 35V17.5455H72.3438V20.5909H72.5256C72.8438 19.5076 73.3778 18.6894 74.1278 18.1364C74.8778 17.5758 75.7415 17.2955 76.7188 17.2955C76.9612 17.2955 77.2225 17.3106 77.5028 17.3409C77.7831 17.3712 78.0294 17.4129 78.2415 17.4659V21.7614C78.0142 21.6932 77.6998 21.6326 77.2983 21.5795C76.8968 21.5265 76.5294 21.5 76.196 21.5C75.4839 21.5 74.8475 21.6553 74.2869 21.9659C73.7339 22.2689 73.2945 22.6932 72.9688 23.2386C72.6506 23.7841 72.4915 24.4129 72.4915 25.125V35H67.6506ZM87.8182 35.3409C86.053 35.3409 84.5265 34.9659 83.2386 34.2159C81.9583 33.4583 80.9697 32.4053 80.2727 31.0568C79.5758 29.7008 79.2273 28.1288 79.2273 26.3409C79.2273 24.5379 79.5758 22.9621 80.2727 21.6136C80.9697 20.2576 81.9583 19.2045 83.2386 18.4545C84.5265 17.697 86.053 17.3182 87.8182 17.3182C89.5833 17.3182 91.1061 17.697 92.3864 18.4545C93.6742 19.2045 94.6667 20.2576 95.3636 21.6136C96.0606 22.9621 96.4091 24.5379 96.4091 26.3409C96.4091 28.1288 96.0606 29.7008 95.3636 31.0568C94.6667 32.4053 93.6742 33.4583 92.3864 34.2159C91.1061 34.9659 89.5833 35.3409 87.8182 35.3409ZM87.8409 31.5909C88.6439 31.5909 89.3144 31.3636 89.8523 30.9091C90.3902 30.447 90.7955 29.8182 91.0682 29.0227C91.3485 28.2273 91.4886 27.322 91.4886 26.3068C91.4886 25.2917 91.3485 24.3864 91.0682 23.5909C90.7955 22.7955 90.3902 22.1667 89.8523 21.7045C89.3144 21.2424 88.6439 21.0114 87.8409 21.0114C87.0303 21.0114 86.3485 21.2424 85.7955 21.7045C85.25 22.1667 84.8371 22.7955 84.5568 23.5909C84.2841 24.3864 84.1477 25.2917 84.1477 26.3068C84.1477 27.322 84.2841 28.2273 84.5568 29.0227C84.8371 29.8182 85.25 30.447 85.7955 30.9091C86.3485 31.3636 87.0303 31.5909 87.8409 31.5909ZM108.841 17.5455V21.1818H98.3295V17.5455H108.841ZM100.716 13.3636H105.557V29.6364C105.557 30.0833 105.625 30.4318 105.761 30.6818C105.898 30.9242 106.087 31.0947 106.33 31.1932C106.58 31.2917 106.867 31.3409 107.193 31.3409C107.42 31.3409 107.648 31.322 107.875 31.2841C108.102 31.2386 108.277 31.2045 108.398 31.1818L109.159 34.7841C108.917 34.8598 108.576 34.947 108.136 35.0455C107.697 35.1515 107.163 35.2159 106.534 35.2386C105.367 35.2841 104.345 35.1288 103.466 34.7727C102.595 34.4167 101.917 33.8636 101.432 33.1136C100.947 32.3636 100.708 31.4167 100.716 30.2727V13.3636ZM119.693 35.3409C117.928 35.3409 116.402 34.9659 115.114 34.2159C113.833 33.4583 112.845 32.4053 112.148 31.0568C111.451 29.7008 111.102 28.1288 111.102 26.3409C111.102 24.5379 111.451 22.9621 112.148 21.6136C112.845 20.2576 113.833 19.2045 115.114 18.4545C116.402 17.697 117.928 17.3182 119.693 17.3182C121.458 17.3182 122.981 17.697 124.261 18.4545C125.549 19.2045 126.542 20.2576 127.239 21.6136C127.936 22.9621 128.284 24.5379 128.284 26.3409C128.284 28.1288 127.936 29.7008 127.239 31.0568C126.542 32.4053 125.549 33.4583 124.261 34.2159C122.981 34.9659 121.458 35.3409 119.693 35.3409ZM119.716 31.5909C120.519 31.5909 121.189 31.3636 121.727 30.9091C122.265 30.447 122.67 29.8182 122.943 29.0227C123.223 28.2273 123.364 27.322 123.364 26.3068C123.364 25.2917 123.223 24.3864 122.943 23.5909C122.67 22.7955 122.265 22.1667 121.727 21.7045C121.189 21.2424 120.519 21.0114 119.716 21.0114C118.905 21.0114 118.223 21.2424 117.67 21.7045C117.125 22.1667 116.712 22.7955 116.432 23.5909C116.159 24.3864 116.023 25.2917 116.023 26.3068C116.023 27.322 116.159 28.2273 116.432 29.0227C116.712 29.8182 117.125 30.447 117.67 30.9091C118.223 31.3636 118.905 31.5909 119.716 31.5909Z" fill="#53A8FE"/>
<defs>
<linearGradient id="paint0_linear_87_48" x1="17.0781" y1="22.5348" x2="17.0781" y2="48.6152" gradientUnits="userSpaceOnUse">
<stop stop-color="#55AEFE"/>
<stop offset="1" stop-color="#2B44FF"/>
</linearGradient>
<linearGradient id="paint1_linear_87_48" x1="18.3148" y1="31.1948" x2="18.3148" y2="60.5353" gradientUnits="userSpaceOnUse">
<stop stop-color="#55AEFE"/>
<stop offset="1" stop-color="#2B44FF"/>
</linearGradient>
<linearGradient id="paint2_linear_87_48" x1="45.3541" y1="45.1484" x2="45.3541" y2="78.5068" gradientUnits="userSpaceOnUse">
<stop stop-color="#55AEFE"/>
<stop offset="1" stop-color="#2B44FF"/>
</linearGradient>
</defs>
</svg>
