<svg width="187" height="46" viewBox="0 0 187 46" fill="none" xmlns="http://www.w3.org/2000/svg">
<rect x="6.15916" y="22.5348" width="23.0804" height="23.0804" rx="11.5402" transform="rotate(-45 6.15916 22.5348)" stroke="url(#paint0_linear_87_48)" stroke-width="3"/>
<rect x="5.57377" y="30.3128" width="26.3405" height="26.3405" rx="13.1702" transform="rotate(-69.57 5.57377 30.3128)" stroke="url(#paint1_linear_87_48)" stroke-width="3"/>
<rect x="28.2772" y="43.11" width="29.9793" height="30.3583" rx="14.9896" transform="rotate(-151.073 28.2772 43.11)" stroke="url(#paint2_linear_87_48)" stroke-width="3"/>
<path d="M47.0227 35V11.7273H56.2045C57.9697 11.7273 59.4735 12.0644 60.7159 12.7386C61.9583 13.4053 62.9053 14.3333 63.5568 15.5227C64.2159 16.7045 64.5455 18.0682 64.5455 19.6136C64.5455 21.1591 64.2121 22.5227 63.5455 23.7045C62.8788 24.8864 61.9129 25.8068 60.6477 26.4659C59.3902 27.125 57.8674 27.4545 56.0795 27.4545H50.2273V23.5114H55.2841C56.2311 23.5114 57.0114 23.3485 57.625 23.0227C58.2462 22.6894 58.7083 22.2311 59.0114 21.6477C59.322 21.0568 59.4773 20.3788 59.4773 19.6136C59.4773 18.8409 59.322 18.1667 59.0114 17.5909C58.7083 17.0076 58.2462 16.5568 57.625 16.2386C57.0038 15.9129 56.2159 15.75 55.2614 15.75H51.9432V35H47.0227ZM67.6506 35V17.5455H72.4915V35H67.6506ZM70.0824 15.2955C69.3627 15.2955 68.7453 15.0568 68.2301 14.5795C67.7225 14.0947 67.4688 13.5152 67.4688 12.8409C67.4688 12.1742 67.7225 11.6023 68.2301 11.125C68.7453 10.6402 69.3627 10.3977 70.0824 10.3977C70.8021 10.3977 71.4157 10.6402 71.9233 11.125C72.4384 11.6023 72.696 12.1742 72.696 12.8409C72.696 13.5152 72.4384 14.0947 71.9233 14.5795C71.4157 15.0568 70.8021 15.2955 70.0824 15.2955ZM81.2102 24.9091V35H76.3693V17.5455H80.983V20.625H81.1875C81.5739 19.6098 82.2216 18.8068 83.1307 18.2159C84.0398 17.6174 85.142 17.3182 86.4375 17.3182C87.6496 17.3182 88.7064 17.5833 89.608 18.1136C90.5095 18.6439 91.2102 19.4015 91.7102 20.3864C92.2102 21.3636 92.4602 22.5303 92.4602 23.8864V35H87.6193V24.75C87.6269 23.6818 87.3542 22.8485 86.8011 22.25C86.2481 21.6439 85.4867 21.3409 84.517 21.3409C83.8655 21.3409 83.2898 21.4811 82.7898 21.7614C82.2973 22.0417 81.911 22.4508 81.6307 22.9886C81.358 23.5189 81.2178 24.1591 81.2102 24.9091ZM104.139 41.9091C102.571 41.9091 101.226 41.6932 100.105 41.2614C98.9915 40.8371 98.1051 40.2576 97.446 39.5227C96.7869 38.7879 96.3589 37.9621 96.1619 37.0455L100.639 36.4432C100.776 36.7917 100.991 37.1174 101.287 37.4205C101.582 37.7235 101.973 37.9659 102.457 38.1477C102.95 38.3371 103.548 38.4318 104.253 38.4318C105.306 38.4318 106.173 38.1742 106.855 37.6591C107.545 37.1515 107.889 36.2992 107.889 35.1023V31.9091H107.685C107.473 32.3939 107.154 32.8523 106.73 33.2841C106.306 33.7159 105.76 34.0682 105.094 34.3409C104.427 34.6136 103.632 34.75 102.707 34.75C101.397 34.75 100.204 34.447 99.1278 33.8409C98.0597 33.2273 97.2074 32.2917 96.571 31.0341C95.9422 29.7689 95.6278 28.1705 95.6278 26.2386C95.6278 24.2614 95.9498 22.6098 96.5938 21.2841C97.2377 19.9583 98.0938 18.9659 99.1619 18.3068C100.238 17.6477 101.416 17.3182 102.696 17.3182C103.673 17.3182 104.491 17.4848 105.151 17.8182C105.81 18.1439 106.34 18.553 106.741 19.0455C107.151 19.5303 107.465 20.0076 107.685 20.4773H107.866V17.5455H112.673V35.1705C112.673 36.6553 112.31 37.8977 111.582 38.8977C110.855 39.8977 109.848 40.6477 108.56 41.1477C107.279 41.6553 105.806 41.9091 104.139 41.9091ZM104.241 31.1136C105.022 31.1136 105.681 30.9205 106.219 30.5341C106.764 30.1402 107.181 29.5795 107.469 28.8523C107.764 28.1174 107.912 27.2386 107.912 26.2159C107.912 25.1932 107.768 24.3068 107.48 23.5568C107.192 22.7992 106.776 22.2121 106.23 21.7955C105.685 21.3788 105.022 21.1705 104.241 21.1705C103.446 21.1705 102.776 21.3864 102.23 21.8182C101.685 22.2424 101.272 22.8333 100.991 23.5909C100.711 24.3485 100.571 25.2235 100.571 26.2159C100.571 27.2235 100.711 28.0947 100.991 28.8295C101.279 29.5568 101.692 30.1212 102.23 30.5227C102.776 30.9167 103.446 31.1136 104.241 31.1136ZM116.616 35V11.7273H125.798C127.563 11.7273 129.067 12.0644 130.31 12.7386C131.552 13.4053 132.499 14.3333 133.151 15.5227C133.81 16.7045 134.139 18.0682 134.139 19.6136C134.139 21.1591 133.806 22.5227 133.139 23.7045C132.473 24.8864 131.507 25.8068 130.241 26.4659C128.984 27.125 127.461 27.4545 125.673 27.4545H119.821V23.5114H124.878C125.825 23.5114 126.605 23.3485 127.219 23.0227C127.84 22.6894 128.302 22.2311 128.605 21.6477C128.916 21.0568 129.071 20.3788 129.071 19.6136C129.071 18.8409 128.916 18.1667 128.605 17.5909C128.302 17.0076 127.84 16.5568 127.219 16.2386C126.598 15.9129 125.81 15.75 124.855 15.75H121.537V35H116.616ZM141.753 35.3295C140.639 35.3295 139.647 35.1364 138.776 34.75C137.904 34.3561 137.215 33.7765 136.707 33.0114C136.207 32.2386 135.957 31.2765 135.957 30.125C135.957 29.1553 136.135 28.3409 136.491 27.6818C136.848 27.0227 137.332 26.4924 137.946 26.0909C138.56 25.6894 139.257 25.3864 140.037 25.1818C140.825 24.9773 141.651 24.8333 142.514 24.75C143.529 24.6439 144.348 24.5455 144.969 24.4545C145.59 24.3561 146.041 24.2121 146.321 24.0227C146.601 23.8333 146.741 23.553 146.741 23.1818V23.1136C146.741 22.3939 146.514 21.8371 146.06 21.4432C145.613 21.0492 144.976 20.8523 144.151 20.8523C143.279 20.8523 142.586 21.0455 142.071 21.4318C141.556 21.8106 141.215 22.2879 141.048 22.8636L136.571 22.5C136.798 21.4394 137.245 20.5227 137.912 19.75C138.579 18.9697 139.438 18.3712 140.491 17.9545C141.552 17.5303 142.779 17.3182 144.173 17.3182C145.143 17.3182 146.071 17.4318 146.957 17.6591C147.851 17.8864 148.643 18.2386 149.332 18.7159C150.029 19.1932 150.579 19.8068 150.98 20.5568C151.382 21.2992 151.582 22.1894 151.582 23.2273V35H146.991V32.5795H146.855C146.575 33.125 146.2 33.6061 145.73 34.0227C145.26 34.4318 144.696 34.7538 144.037 34.9886C143.378 35.2159 142.616 35.3295 141.753 35.3295ZM143.139 31.9886C143.851 31.9886 144.48 31.8485 145.026 31.5682C145.571 31.2803 145.999 30.8939 146.31 30.4091C146.62 29.9242 146.776 29.375 146.776 28.7614V26.9091C146.624 27.0076 146.416 27.0985 146.151 27.1818C145.893 27.2576 145.601 27.3295 145.276 27.3977C144.95 27.4583 144.624 27.5152 144.298 27.5682C143.973 27.6136 143.677 27.6553 143.412 27.6932C142.844 27.7765 142.348 27.9091 141.923 28.0909C141.499 28.2727 141.17 28.5189 140.935 28.8295C140.7 29.1326 140.582 29.5114 140.582 29.9659C140.582 30.625 140.821 31.1288 141.298 31.4773C141.783 31.8182 142.397 31.9886 143.139 31.9886ZM164.622 17.5455V21.1818H154.111V17.5455H164.622ZM156.497 13.3636H161.338V29.6364C161.338 30.0833 161.406 30.4318 161.543 30.6818C161.679 30.9242 161.868 31.0947 162.111 31.1932C162.361 31.2917 162.649 31.3409 162.974 31.3409C163.202 31.3409 163.429 31.322 163.656 31.2841C163.884 31.2386 164.058 31.2045 164.179 31.1818L164.94 34.7841C164.698 34.8598 164.357 34.947 163.918 35.0455C163.478 35.1515 162.944 35.2159 162.315 35.2386C161.149 35.2841 160.126 35.1288 159.247 34.7727C158.376 34.4167 157.698 33.8636 157.213 33.1136C156.728 32.3636 156.49 31.4167 156.497 30.2727V13.3636ZM172.991 24.9091V35H168.151V11.7273H172.855V20.625H173.06C173.454 19.5947 174.09 18.7879 174.969 18.2045C175.848 17.6136 176.95 17.3182 178.276 17.3182C179.488 17.3182 180.545 17.5833 181.446 18.1136C182.355 18.6364 183.06 19.3902 183.56 20.375C184.067 21.3523 184.317 22.5227 184.31 23.8864V35H179.469V24.75C179.476 23.6742 179.204 22.8371 178.651 22.2386C178.105 21.6402 177.34 21.3409 176.355 21.3409C175.696 21.3409 175.113 21.4811 174.605 21.7614C174.105 22.0417 173.711 22.4508 173.423 22.9886C173.143 23.5189 172.999 24.1591 172.991 24.9091Z" fill="#53A8FE"/>
<defs>
<linearGradient id="paint0_linear_87_48" x1="17.0781" y1="22.5348" x2="17.0781" y2="48.6152" gradientUnits="userSpaceOnUse">
<stop stop-color="#55AEFE"/>
<stop offset="1" stop-color="#2B44FF"/>
</linearGradient>
<linearGradient id="paint1_linear_87_48" x1="18.3148" y1="31.1948" x2="18.3148" y2="60.5353" gradientUnits="userSpaceOnUse">
<stop stop-color="#55AEFE"/>
<stop offset="1" stop-color="#2B44FF"/>
</linearGradient>
<linearGradient id="paint2_linear_87_48" x1="45.3541" y1="45.1484" x2="45.3541" y2="78.5068" gradientUnits="userSpaceOnUse">
<stop stop-color="#55AEFE"/>
<stop offset="1" stop-color="#2B44FF"/>
</linearGradient>
</defs>
</svg>
